<svg id="visual" viewBox="0 0 960 540" width="960" height="540" xmlns="http://www.w3.org/2000/svg" xmlns:xlink="http://www.w3.org/1999/xlink" version="1.1"><path d="M396 540L469 540L469 491L412 491L412 442L486 442L486 393L382 393L382 344L613 344L613 295L429 295L429 245L529 245L529 196L518 196L518 147L352 147L352 98L568 98L568 49L539 49L539 0L960 0L960 49L960 49L960 98L960 98L960 147L960 147L960 196L960 196L960 245L960 245L960 295L960 295L960 344L960 344L960 393L960 393L960 442L960 442L960 491L960 491L960 540L960 540Z" fill="#e11d48"></path><path d="M558 540L590 540L590 491L684 491L684 442L734 442L734 393L537 393L537 344L750 344L750 295L752 295L752 245L729 245L729 196L562 196L562 147L615 147L615 98L555 98L555 49L700 49L700 0L960 0L960 49L960 49L960 98L960 98L960 147L960 147L960 196L960 196L960 245L960 245L960 295L960 295L960 344L960 344L960 393L960 393L960 442L960 442L960 491L960 491L960 540L960 540Z" fill="#27272a"></path><path d="M907 540L899 540L899 491L806 491L806 442L712 442L712 393L699 393L699 344L882 344L882 295L875 295L875 245L903 245L903 196L894 196L894 147L870 147L870 98L741 98L741 49L805 49L805 0L960 0L960 49L960 49L960 98L960 98L960 147L960 147L960 196L960 196L960 245L960 245L960 295L960 295L960 344L960 344L960 393L960 393L960 442L960 442L960 491L960 491L960 540L960 540Z" fill="#e11d48"></path></svg>