<svg id="visual" viewBox="0 0 900 200" width="900" height="200" xmlns="http://www.w3.org/2000/svg" xmlns:xlink="http://www.w3.org/1999/xlink" version="1.1"><rect x="0" y="0" width="900" height="200" fill="#27272a"></rect><path d="M0 64L25 73.5C50 83 100 102 150 110.7C200 119.3 250 117.7 300 112.8C350 108 400 100 450 91.3C500 82.7 550 73.3 600 73.3C650 73.3 700 82.7 750 86.8C800 91 850 90 875 89.5L900 89L900 201L875 201C850 201 800 201 750 201C700 201 650 201 600 201C550 201 500 201 450 201C400 201 350 201 300 201C250 201 200 201 150 201C100 201 50 201 25 201L0 201Z" fill="#f43f5e"></path><path d="M0 92L25 101.8C50 111.7 100 131.3 150 132.2C200 133 250 115 300 114.2C350 113.3 400 129.7 450 128.8C500 128 550 110 600 101.7C650 93.3 700 94.7 750 96.8C800 99 850 102 875 103.5L900 105L900 201L875 201C850 201 800 201 750 201C700 201 650 201 600 201C550 201 500 201 450 201C400 201 350 201 300 201C250 201 200 201 150 201C100 201 50 201 25 201L0 201Z" fill="#f34055"></path><path d="M0 143L25 146.8C50 150.7 100 158.3 150 158.7C200 159 250 152 300 151C350 150 400 155 450 158.5C500 162 550 164 600 162.2C650 160.3 700 154.7 750 149.5C800 144.3 850 139.7 875 137.3L900 135L900 201L875 201C850 201 800 201 750 201C700 201 650 201 600 201C550 201 500 201 450 201C400 201 350 201 300 201C250 201 200 201 150 201C100 201 50 201 25 201L0 201Z" fill="#f1424d"></path><path d="M0 171L25 167.5C50 164 100 157 150 160.5C200 164 250 178 300 180.3C350 182.7 400 173.3 450 173.5C500 173.7 550 183.3 600 187.2C650 191 700 189 750 187.7C800 186.3 850 185.7 875 185.3L900 185L900 201L875 201C850 201 800 201 750 201C700 201 650 201 600 201C550 201 500 201 450 201C400 201 350 201 300 201C250 201 200 201 150 201C100 201 50 201 25 201L0 201Z" fill="#ef4444"></path></svg>