<svg id="visual" viewBox="0 0 1400 800" width="1400" height="800" xmlns="http://www.w3.org/2000/svg"  version="1.1"><rect x="0" y="0" width="1400" height="800" fill="#27272a"></rect><path d="M0 615L38.8 630C77.7 645 155.3 675 233.2 658.7C311 642.3 389 579.7 466.8 551.8C544.7 524 622.3 531 700 552.2C777.7 573.3 855.3 608.7 933.2 610.5C1011 612.3 1089 580.7 1166.8 580.8C1244.7 581 1322.3 613 1361.2 629L1400 645L1400 801L1361.2 801C1322.3 801 1244.7 801 1166.8 801C1089 801 1011 801 933.2 801C855.3 801 777.7 801 700 801C622.3 801 544.7 801 466.8 801C389 801 311 801 233.2 801C155.3 801 77.7 801 38.8 801L0 801Z" fill="#e11d48" stroke-linecap="round" stroke-linejoin="miter"></path></svg>