<svg id="visual" viewBox="0 0 960 540" width="960" height="540" xmlns="http://www.w3.org/2000/svg" xmlns:xlink="http://www.w3.org/1999/xlink" version="1.1"><rect x="0" y="0" width="960" height="540" fill="#27272a"></rect><path d="M637 540L627.8 527.2C618.7 514.3 600.3 488.7 571.5 463C542.7 437.3 503.3 411.7 501.2 386C499 360.3 534 334.7 541.2 308.8C548.3 283 527.7 257 513.8 231.2C500 205.3 493 179.7 489.5 154C486 128.3 486 102.7 492.2 77C498.3 51.3 510.7 25.7 516.8 12.8L523 0L960 0L960 12.8C960 25.7 960 51.3 960 77C960 102.7 960 128.3 960 154C960 179.7 960 205.3 960 231.2C960 257 960 283 960 308.8C960 334.7 960 360.3 960 386C960 411.7 960 437.3 960 463C960 488.7 960 514.3 960 527.2L960 540Z" fill="#f43f5e"></path><path d="M771 540L746.2 527.2C721.3 514.3 671.7 488.7 638.5 463C605.3 437.3 588.7 411.7 615.3 386C642 360.3 712 334.7 748.7 308.8C785.3 283 788.7 257 776.2 231.2C763.7 205.3 735.3 179.7 729.2 154C723 128.3 739 102.7 752.7 77C766.3 51.3 777.7 25.7 783.3 12.8L789 0L960 0L960 12.8C960 25.7 960 51.3 960 77C960 102.7 960 128.3 960 154C960 179.7 960 205.3 960 231.2C960 257 960 283 960 308.8C960 334.7 960 360.3 960 386C960 411.7 960 437.3 960 463C960 488.7 960 514.3 960 527.2L960 540Z" fill="#eb3053"></path><path d="M757 540L754.7 527.2C752.3 514.3 747.7 488.7 760.7 463C773.7 437.3 804.3 411.7 810.5 386C816.7 360.3 798.3 334.7 801.2 308.8C804 283 828 257 842.8 231.2C857.7 205.3 863.3 179.7 843.2 154C823 128.3 777 102.7 767.8 77C758.7 51.3 786.3 25.7 800.2 12.8L814 0L960 0L960 12.8C960 25.7 960 51.3 960 77C960 102.7 960 128.3 960 154C960 179.7 960 205.3 960 231.2C960 257 960 283 960 308.8C960 334.7 960 360.3 960 386C960 411.7 960 437.3 960 463C960 488.7 960 514.3 960 527.2L960 540Z" fill="#e11d48"></path></svg>