<svg id="visual" viewBox="0 0 960 540" width="960" height="540" xmlns="http://www.w3.org/2000/svg" xmlns:xlink="http://www.w3.org/1999/xlink" version="1.1"><rect x="0" y="0" width="960" height="540" fill="#27272a"></rect><path d="M541 540L451 540L451 463L587 463L587 386L521 386L521 309L502 309L502 231L511 231L511 154L491 154L491 77L569 77L569 0L960 0L960 77L960 77L960 154L960 154L960 231L960 231L960 309L960 309L960 386L960 386L960 463L960 463L960 540L960 540Z" fill="#e11d48"></path><path d="M574 540L686 540L686 463L592 463L592 386L630 386L630 309L682 309L682 231L652 231L652 154L703 154L703 77L588 77L588 0L960 0L960 77L960 77L960 154L960 154L960 231L960 231L960 309L960 309L960 386L960 386L960 463L960 463L960 540L960 540Z" fill="#eb3053"></path><path d="M813 540L808 540L808 463L804 463L804 386L874 386L874 309L776 309L776 231L749 231L749 154L724 154L724 77L792 77L792 0L960 0L960 77L960 77L960 154L960 154L960 231L960 231L960 309L960 309L960 386L960 386L960 463L960 463L960 540L960 540Z" fill="#f43f5e"></path></svg>