<svg id="visual" viewBox="0 0 699 1100" width="699" height="1100" xmlns="http://www.w3.org/2000/svg" xmlns:xlink="http://www.w3.org/1999/xlink" version="1.1"><rect x="0" y="0" width="699" height="1100" fill="#18181b"></rect><defs><linearGradient id="grad1_0" x1="0%" y1="0%" x2="100%" y2="100%"><stop offset="30%" stop-color="#18181b" stop-opacity="1"></stop><stop offset="70%" stop-color="#18181b" stop-opacity="1"></stop></linearGradient></defs><defs><linearGradient id="grad2_0" x1="0%" y1="0%" x2="100%" y2="100%"><stop offset="30%" stop-color="#18181b" stop-opacity="1"></stop><stop offset="70%" stop-color="#18181b" stop-opacity="1"></stop></linearGradient></defs><g transform="translate(699, 0)"><path d="M0 325.8C-38.8 314.4 -77.5 303.1 -120.2 290.1C-162.8 277.1 -209.3 262.6 -230.4 230.4C-251.4 198.2 -247 148.5 -258.7 107.2C-270.3 65.8 -298.1 32.9 -325.8 0L0 0Z" fill="#f43f5e"></path></g><g transform="translate(0, 1100)"><path d="M0 -325.8C45.9 -325.4 91.7 -324.9 124.7 -301C157.7 -277.1 177.7 -229.8 193 -193C208.3 -156.2 218.9 -129.9 240.2 -99.5C261.5 -69.1 293.7 -34.5 325.8 0L0 0Z" fill="#f43f5e"></path></g></svg>