<svg id="visual" viewBox="0 0 900 300" width="900" height="300" xmlns="http://www.w3.org/2000/svg" xmlns:xlink="http://www.w3.org/1999/xlink" version="1.1"><rect x="0" y="0" width="900" height="300" fill="#27272a"></rect><path d="M0 72L18.8 79.2C37.7 86.3 75.3 100.7 112.8 101.2C150.3 101.7 187.7 88.3 225.2 78C262.7 67.7 300.3 60.3 337.8 64.5C375.3 68.7 412.7 84.3 450.2 85.8C487.7 87.3 525.3 74.7 562.8 69.8C600.3 65 637.7 68 675.2 66.3C712.7 64.7 750.3 58.3 787.8 58.7C825.3 59 862.7 66 881.3 69.5L900 73L900 0L881.3 0C862.7 0 825.3 0 787.8 0C750.3 0 712.7 0 675.2 0C637.7 0 600.3 0 562.8 0C525.3 0 487.7 0 450.2 0C412.7 0 375.3 0 337.8 0C300.3 0 262.7 0 225.2 0C187.7 0 150.3 0 112.8 0C75.3 0 37.7 0 18.8 0L0 0Z" fill="#f43f5e" stroke-linecap="round" stroke-linejoin="miter"></path></svg>