<svg id="visual" viewBox="0 0 900 300" width="900" height="300" xmlns="http://www.w3.org/2000/svg" xmlns:xlink="http://www.w3.org/1999/xlink" version="1.1"><rect x="0" y="0" width="900" height="300" fill="#27272a"></rect><path d="M0 212L18.8 215.2C37.7 218.3 75.3 224.7 112.8 220.5C150.3 216.3 187.7 201.7 225.2 190.8C262.7 180 300.3 173 337.8 172.5C375.3 172 412.7 178 450.2 188.3C487.7 198.7 525.3 213.3 562.8 216C600.3 218.7 637.7 209.3 675.2 199.2C712.7 189 750.3 178 787.8 179.2C825.3 180.3 862.7 193.7 881.3 200.3L900 207L900 301L881.3 301C862.7 301 825.3 301 787.8 301C750.3 301 712.7 301 675.2 301C637.7 301 600.3 301 562.8 301C525.3 301 487.7 301 450.2 301C412.7 301 375.3 301 337.8 301C300.3 301 262.7 301 225.2 301C187.7 301 150.3 301 112.8 301C75.3 301 37.7 301 18.8 301L0 301Z" fill="#f43f5e" stroke-linecap="round" stroke-linejoin="miter"></path></svg>