<svg id="visual" viewBox="0 0 1800 300" width="1800" height="300" xmlns="http://www.w3.org/2000/svg" xmlns:xlink="http://www.w3.org/1999/xlink" version="1.1"><path d="M0 248L37.5 246.2C75 244.3 150 240.7 225 233.3C300 226 375 215 450 204C525 193 600 182 675 180.7C750 179.3 825 187.7 900 196.2C975 204.7 1050 213.3 1125 220.2C1200 227 1275 232 1350 227.7C1425 223.3 1500 209.7 1575 197.8C1650 186 1725 176 1762.5 171L1800 166L1800 301L1762.5 301C1725 301 1650 301 1575 301C1500 301 1425 301 1350 301C1275 301 1200 301 1125 301C1050 301 975 301 900 301C825 301 750 301 675 301C600 301 525 301 450 301C375 301 300 301 225 301C150 301 75 301 37.5 301L0 301Z" fill="#f43f5e" stroke-linecap="round" stroke-linejoin="miter"></path></svg>